<svg width="19" height="20" viewBox="0 0 19 20" fill="none" xmlns="http://www.w3.org/2000/svg">
<g id="catppuccin:changelog">
<path id="Vector" d="M3.21813 13.515C4.06622 15.1707 5.48377 16.4645 7.20992 17.1582C8.93607 17.8518 10.8547 17.8988 12.6127 17.2903C14.3707 16.6819 15.8498 15.459 16.7778 13.8467C17.7059 12.2344 18.0204 10.3411 17.6635 8.51536C17.3066 6.68959 16.3024 5.05414 14.8355 3.90995C13.3687 2.76577 11.538 2.18983 9.68023 2.28813C7.82251 2.38644 6.0628 3.15236 4.7249 4.44496C3.38701 5.73756 2.56095 7.46987 2.39875 9.3231M4.15625 8.21873L2.375 9.99998L0.59375 8.21873M10.0938 5.84373V10.5937H13.6562" stroke="#A2A2A2" stroke-width="1.1875" stroke-linecap="round" stroke-linejoin="round"/>
</g>
</svg>
