<svg width="20" height="20" viewBox="0 0 20 20" fill="none" xmlns="http://www.w3.org/2000/svg">
<g id="solar:document-linear">
<g id="Group">
<path id="Vector" d="M2.875 8.41732C2.875 5.43194 2.875 3.93886 3.80283 3.01182C4.73067 2.08478 6.22296 2.08398 9.20833 2.08398H10.7917C13.777 2.08398 15.2701 2.08398 16.1972 3.01182C17.1242 3.93965 17.125 5.43194 17.125 8.41732V11.584C17.125 14.5694 17.125 16.0624 16.1972 16.9895C15.2693 17.9165 13.777 17.9173 10.7917 17.9173H9.20833C6.22296 17.9173 4.72987 17.9173 3.80283 16.9895C2.87579 16.0617 2.875 14.5694 2.875 11.584V8.41732Z" stroke="#A2A2A2" stroke-width="1.1875"/>
<path id="Vector_2" d="M6.83331 8.41797H13.1666M6.83331 11.5846H10.7916" stroke="#A2A2A2" stroke-width="1.1875" stroke-linecap="round"/>
</g>
</g>
</svg>
