<svg width="63" height="63" viewBox="0 0 63 63" fill="none" xmlns="http://www.w3.org/2000/svg">
<style>
  .favicon-path {
    fill: #975EC9;
  }

  @media (prefers-color-scheme: dark) {
    .favicon-path {
      fill: white;
    }
  }
</style>
<path class="favicon-path" d="M53.0769 32.1818C53.0769 32.1818 53.0917 32.167 53.0991 32.1596C53.2003 32.0535 53.3014 31.9474 53.3976 31.8438C53.4248 31.8142 53.4494 31.787 53.4766 31.7574C53.5457 31.6834 53.6123 31.6069 53.6789 31.5329C53.7134 31.4934 53.748 31.4564 53.78 31.417C53.8368 31.3528 53.8935 31.2862 53.9478 31.2221C53.9824 31.1801 54.0169 31.1406 54.0514 31.0987C54.1057 31.0346 54.16 30.9679 54.2118 30.9038C54.2439 30.8643 54.276 30.8273 54.3056 30.7878C54.382 30.6916 54.4585 30.5954 54.5301 30.4992C54.5621 30.4548 54.5942 30.4128 54.6263 30.3684C54.6682 30.3117 54.7102 30.2549 54.7521 30.1982C54.7891 30.1464 54.8261 30.0945 54.8607 30.0452C54.8952 29.9959 54.9273 29.949 54.9618 29.8996C54.9988 29.8454 55.0359 29.7911 55.0704 29.7368C55.1 29.6924 55.1271 29.648 55.1567 29.6036C55.1937 29.5468 55.2308 29.4901 55.2653 29.4333C55.2875 29.3988 55.3072 29.3643 55.327 29.3297C55.4035 29.2064 55.475 29.0805 55.5416 28.9596C55.5564 28.9325 55.5712 28.9078 55.586 28.8807C55.6206 28.8165 55.6527 28.7524 55.6872 28.6907C55.7045 28.6586 55.7217 28.6266 55.7365 28.5945C55.7686 28.5303 55.7982 28.4687 55.8278 28.4045C55.8426 28.3749 55.855 28.3453 55.8698 28.3157C55.8994 28.2491 55.929 28.1825 55.9586 28.1183C55.966 28.101 55.9734 28.0813 55.9808 28.064C56.077 27.8321 56.1609 27.6027 56.2324 27.3757C56.2374 27.3584 56.2423 27.3411 56.2472 27.3263C56.267 27.2573 56.2867 27.1882 56.3065 27.1191C56.3114 27.0994 56.3163 27.0772 56.3237 27.0574C56.341 26.9883 56.3583 26.9193 56.3731 26.8502C56.3755 26.8354 56.378 26.823 56.3805 26.8082C56.5631 25.9348 56.5285 25.1059 56.2497 24.341C55.1 21.183 50.0916 19.8359 43.3166 20.3368L45.0289 23.1074C49.5118 22.8262 52.6303 23.5737 53.2989 25.4143C53.5358 26.0681 53.4494 26.8132 53.0769 27.6249C52.9979 27.7951 52.9091 27.9653 52.8055 28.1405C52.803 28.1455 52.7981 28.1529 52.7956 28.1578C52.766 28.2096 52.734 28.2614 52.7019 28.3132C52.6945 28.3231 52.6895 28.333 52.6821 28.3453C52.6501 28.3946 52.618 28.444 52.5859 28.4933C52.5761 28.5057 52.5686 28.5205 52.5588 28.5328C52.5267 28.5797 52.4946 28.629 52.4601 28.6759C52.4502 28.6907 52.4379 28.7055 52.428 28.7228C52.3935 28.7697 52.3614 28.8165 52.3244 28.8634C52.3121 28.8807 52.2997 28.8955 52.2874 28.9128C52.2528 28.9596 52.2158 29.0065 52.1813 29.0534C52.169 29.0707 52.1542 29.0879 52.1394 29.1052C52.1023 29.1521 52.0653 29.199 52.0259 29.2458C52.0135 29.2606 51.9987 29.2779 51.9864 29.2927C51.9469 29.342 51.905 29.3914 51.863 29.4383C51.8556 29.4457 51.8482 29.4531 51.8433 29.4605C51.7495 29.569 51.6533 29.6776 51.5522 29.7861C51.5423 29.7985 51.5324 29.8084 51.5226 29.8207C51.4905 29.8552 51.4559 29.8898 51.4239 29.9268C51.3918 29.9588 51.3622 29.9909 51.3301 30.0255C51.3005 30.0575 51.2684 30.0896 51.2364 30.1192C51.1994 30.1562 51.1648 30.1932 51.1278 30.2278C51.0982 30.2574 51.0686 30.287 51.0365 30.3166C50.997 30.3561 50.9576 30.3931 50.9181 30.4326C50.8885 30.4622 50.8589 30.4893 50.8268 30.5189C50.7849 30.5584 50.7429 30.6003 50.6985 30.6398C50.6689 30.6669 50.6393 30.6941 50.6097 30.7212C50.5628 30.7632 50.5159 30.8076 50.4691 30.8495C50.4419 30.8742 50.4123 30.9013 50.3827 30.926C50.3334 30.9704 50.2816 31.0148 50.2297 31.0617C50.2026 31.0864 50.1755 31.1086 50.1483 31.1332C50.094 31.1801 50.0373 31.2295 49.9806 31.2763C49.9559 31.2985 49.9312 31.3183 49.9065 31.3405C49.8449 31.3948 49.7807 31.4466 49.7166 31.5009C47.728 33.1514 45.0289 34.8661 41.8289 36.4895C40.9333 36.9435 39.9983 37.3901 39.0286 37.8268C39.0212 37.8317 39.0114 37.8342 39.004 37.8391C38.6906 37.9797 38.3748 38.1204 38.0541 38.2585C38.0418 38.2635 38.0294 38.2684 38.0171 38.2733C37.3682 38.5546 36.7045 38.8284 36.0285 39.0974C36.0039 39.1072 35.9792 39.1171 35.9545 39.127C35.6387 39.2528 35.318 39.3762 34.9972 39.4995C34.9676 39.5094 34.9405 39.5217 34.9109 39.5316C34.5704 39.6599 34.2275 39.7882 33.8796 39.914C33.4478 40.0719 33.021 40.2224 32.5917 40.3704C32.5547 40.3828 32.5177 40.3951 32.4807 40.4074C32.0761 40.5456 31.6739 40.6813 31.2718 40.8096C31.2422 40.8195 31.2125 40.8293 31.1829 40.8392C30.7611 40.9749 30.3441 41.1057 29.9271 41.2315C29.9099 41.2364 29.8901 41.2414 29.8729 41.2488C29.4707 41.3697 29.071 41.4881 28.6738 41.5991C28.6368 41.609 28.6022 41.6188 28.5652 41.6312C28.1656 41.7447 27.7708 41.8508 27.3785 41.9544C27.3637 41.9593 27.3489 41.9618 27.3341 41.9667C26.9295 42.0728 26.5298 42.174 26.1326 42.2702C26.1054 42.2776 26.0783 42.2825 26.0512 42.2899C25.6737 42.3812 25.2987 42.4676 24.9286 42.549C24.899 42.5564 24.8669 42.5638 24.8373 42.5687C24.4475 42.6551 24.0626 42.734 23.6826 42.8105C20.0756 43.526 16.8954 43.7875 14.4701 43.5778C14.3122 43.563 14.1568 43.5482 14.0063 43.5309C13.9964 43.5309 13.989 43.5309 13.9816 43.5285C13.8385 43.5112 13.7003 43.4939 13.5647 43.4717C13.5548 43.4717 13.5449 43.4692 13.535 43.4668C13.3919 43.4446 13.2513 43.4224 13.1132 43.3952C13.1132 43.3952 13.1107 43.3952 13.1082 43.3952C12.9775 43.3706 12.8516 43.3434 12.7283 43.3163C12.7135 43.3138 12.6987 43.3089 12.6839 43.3064C12.4347 43.2472 12.2003 43.1831 11.9782 43.109C11.961 43.1041 11.9437 43.0967 11.9264 43.0918C11.7093 43.0178 11.5045 42.9388 11.317 42.85C11.2998 42.8426 11.2825 42.8327 11.2652 42.8253C11.1813 42.7858 11.0975 42.7439 11.0185 42.6995C11.0111 42.6945 11.0012 42.6921 10.9938 42.6871C10.9075 42.6403 10.8285 42.5909 10.7496 42.5391C10.7348 42.5292 10.72 42.5194 10.7052 42.5095C10.641 42.4651 10.5769 42.4207 10.5177 42.3738C10.5053 42.3639 10.4905 42.3541 10.4782 42.3442C10.4091 42.2899 10.345 42.2332 10.2857 42.1764C10.2734 42.1666 10.2635 42.1542 10.2537 42.1444C10.2043 42.095 10.1574 42.0457 10.1106 41.9939C10.0982 41.9791 10.0859 41.9643 10.0736 41.9495C10.0218 41.8878 9.97487 41.8236 9.93046 41.7595C9.92553 41.7496 9.9206 41.7422 9.91319 41.7323C9.87619 41.6756 9.84165 41.6164 9.80957 41.5547C9.7997 41.5374 9.78983 41.5177 9.78243 41.5004C9.74789 41.4313 9.71582 41.3598 9.68868 41.2858C9.66894 41.2315 9.65167 41.1748 9.63687 41.118C9.63193 41.1032 9.62947 41.0884 9.627 41.0736C9.61713 41.0317 9.60479 40.9897 9.59739 40.9478C9.59493 40.933 9.59246 40.9157 9.58999 40.9009C9.58259 40.8589 9.57519 40.8145 9.57025 40.7726C9.57025 40.7578 9.57025 40.743 9.56779 40.7282C9.56285 40.6838 9.56038 40.6394 9.55792 40.5925C9.55792 40.5777 9.55792 40.5654 9.55792 40.5505C9.55792 40.5037 9.55792 40.4568 9.55792 40.4099C9.55792 40.3976 9.55792 40.3828 9.56038 40.3704C9.56285 40.3211 9.56779 40.2742 9.57272 40.2249C9.57272 40.2125 9.57519 40.1977 9.57765 40.1854C9.58506 40.1361 9.58999 40.0867 9.59986 40.0349C9.60233 40.0201 9.60479 40.0078 9.60726 39.993C9.61713 39.9436 9.627 39.8943 9.63933 39.8425C9.99955 38.3399 11.5119 36.5537 13.8755 34.7057C14.1346 33.1613 14.5861 31.6415 15.2177 30.1809C10.0933 33.6226 6.84153 37.3506 6.51832 40.4395C6.51586 40.4691 6.51339 40.4963 6.51092 40.5259C6.50105 40.632 6.49612 40.7356 6.49365 40.8392C6.49365 40.8836 6.49365 40.9256 6.49365 40.97C6.49365 41.0218 6.49365 41.0761 6.49859 41.1279C6.49859 41.1797 6.50352 41.234 6.50846 41.2858C6.51092 41.3302 6.51339 41.3721 6.51832 41.4165C6.52819 41.5078 6.54053 41.5966 6.5578 41.6879C6.56273 41.72 6.57014 41.7496 6.57754 41.7817C6.59234 41.8508 6.60714 41.9223 6.62441 41.9914C6.63182 42.021 6.63922 42.0506 6.64909 42.0802C6.67623 42.1764 6.70583 42.2702 6.73791 42.3639C6.76751 42.4429 6.79959 42.5218 6.83166 42.6008C6.844 42.6279 6.85633 42.6526 6.86867 42.6797C6.89334 42.7316 6.91554 42.7809 6.94268 42.8302C6.95749 42.8599 6.97722 42.8919 6.99203 42.9215C7.0167 42.9659 7.0389 43.0103 7.06604 43.0523C7.08578 43.0844 7.10552 43.1164 7.12526 43.146C7.14993 43.1855 7.17707 43.2275 7.20421 43.2669C7.22641 43.299 7.24862 43.3311 7.27329 43.3632C7.30043 43.4002 7.32757 43.4396 7.35717 43.4767C7.38185 43.5087 7.40898 43.5408 7.43366 43.5729C7.46326 43.6074 7.49287 43.6444 7.52248 43.679C7.54961 43.711 7.57922 43.7431 7.60883 43.7727C7.63843 43.8073 7.67051 43.8393 7.70258 43.8714C7.73219 43.9035 7.76426 43.9331 7.79634 43.9652C7.82841 43.9972 7.86048 44.0268 7.89502 44.0589C7.92956 44.091 7.96164 44.1206 7.99618 44.1502C8.03072 44.1798 8.06526 44.2094 8.0998 44.239C8.13681 44.2686 8.17382 44.3007 8.21082 44.3303C8.24537 44.3574 8.28237 44.3846 8.31691 44.4117C8.35639 44.4413 8.39587 44.4709 8.43781 44.5005C8.47482 44.5252 8.50936 44.5523 8.54636 44.577C8.58831 44.6066 8.63272 44.6362 8.67713 44.6634C8.71413 44.688 8.75114 44.7103 8.78815 44.7325C8.83503 44.7621 8.8819 44.7917 8.92878 44.8188C8.96332 44.841 9.00033 44.8608 9.03734 44.8805C9.08915 44.9101 9.13849 44.9397 9.19277 44.9668C9.22731 44.9841 9.26185 45.0038 9.29639 45.0211C9.35314 45.0507 9.40989 45.0803 9.4691 45.1099C9.4987 45.1247 9.52831 45.1371 9.55792 45.1519C9.62453 45.184 9.68868 45.216 9.75776 45.2456C9.77256 45.253 9.7849 45.258 9.7997 45.2629C10.1648 45.4233 10.5571 45.5688 10.9741 45.6996C10.979 45.6996 10.984 45.7021 10.9889 45.7045C11.0826 45.7341 11.1789 45.7613 11.2751 45.7884C11.2924 45.7934 11.3096 45.7983 11.3294 45.8032C11.4207 45.8279 11.5144 45.8526 11.6082 45.8772C11.6328 45.8822 11.655 45.8896 11.6797 45.8945C11.771 45.9167 11.8648 45.9389 11.9585 45.9611C11.9856 45.9685 12.0128 45.9735 12.0399 45.9809C12.1312 46.0006 12.225 46.0228 12.3212 46.0401C12.3508 46.045 12.3804 46.0524 12.41 46.0573C12.5038 46.0771 12.6 46.0943 12.6962 46.1116C12.7258 46.1166 12.7579 46.124 12.7875 46.1289C12.8837 46.1462 12.9824 46.1634 13.0835 46.1782C13.1132 46.1832 13.1452 46.1881 13.1748 46.193C13.276 46.2078 13.3771 46.2226 13.4808 46.2374C13.5104 46.2424 13.54 46.2449 13.5696 46.2498C13.6732 46.2646 13.7793 46.2769 13.8854 46.2893C13.915 46.2917 13.9421 46.2967 13.9717 46.2991C14.0803 46.3115 14.1913 46.3238 14.3023 46.3361C14.327 46.3386 14.3542 46.3411 14.3813 46.3435C14.4973 46.3559 14.6107 46.3657 14.7292 46.3756C14.7514 46.3756 14.7711 46.3781 14.7933 46.3805C14.9167 46.3904 15.04 46.4003 15.1634 46.4077C15.1757 46.4077 15.1905 46.4077 15.2053 46.4102C15.3386 46.4176 15.4718 46.4274 15.6075 46.4324C16.6363 46.4817 17.7318 46.4768 18.8839 46.4151C19.5254 47.4883 20.2828 48.4777 21.1414 49.3659C21.2426 49.472 21.3462 49.5756 21.4523 49.6767C21.472 49.694 21.4893 49.7137 21.509 49.731C21.6151 49.8322 21.7212 49.9333 21.8298 50.0345C21.8545 50.0567 21.8791 50.0814 21.9063 50.1036C22.0296 50.217 22.1554 50.3281 22.2837 50.4366C22.301 50.4514 22.3183 50.4662 22.3356 50.481C22.449 50.5748 22.5625 50.6685 22.676 50.7598C22.7056 50.7845 22.7352 50.8092 22.7673 50.8314C22.8981 50.935 23.0313 51.0362 23.1645 51.1348C23.1769 51.1422 23.1892 51.1521 23.1991 51.1595C23.3224 51.2508 23.4483 51.3372 23.5741 51.4235C23.6086 51.4457 23.6432 51.4704 23.6752 51.4926C23.8134 51.5863 23.9516 51.6776 24.0922 51.7665C24.2328 51.8553 24.3735 51.9392 24.5166 52.023C24.5536 52.0452 24.5906 52.065 24.6276 52.0872C24.7608 52.1637 24.894 52.2377 25.0273 52.3092C25.0396 52.3166 25.0519 52.324 25.0643 52.329C25.2098 52.4055 25.3579 52.4819 25.5059 52.5535C25.5429 52.5732 25.5824 52.5905 25.6219 52.6102C25.7502 52.6719 25.8809 52.7336 26.0117 52.7903C26.0364 52.8002 26.0586 52.8125 26.0832 52.8224C26.2337 52.889 26.3867 52.9532 26.5397 53.0149C26.5791 53.0297 26.6162 53.0445 26.6556 53.0593C26.7839 53.1111 26.9147 53.158 27.0454 53.2073C27.0775 53.2196 27.1071 53.2295 27.1392 53.2418C27.2946 53.2961 27.4501 53.3504 27.608 53.3997C27.645 53.4121 27.682 53.4219 27.719 53.4343C27.8498 53.4738 27.983 53.5132 28.1162 53.5502C28.1532 53.5601 28.1902 53.5724 28.2272 53.5823C28.3876 53.6267 28.548 53.6662 28.7108 53.7057C28.7453 53.7131 28.7774 53.7205 28.812 53.7279C28.9477 53.7599 29.0858 53.7896 29.224 53.8167C29.2659 53.8241 29.3054 53.834 29.3473 53.8414C29.5126 53.8734 29.6779 53.903 29.8457 53.9277C29.8729 53.9327 29.9 53.9351 29.9271 53.9401C30.0727 53.9623 30.2183 53.982 30.3638 53.9993C30.4082 54.0042 30.4502 54.0091 30.4946 54.0141C30.6648 54.0338 30.8351 54.0511 31.0053 54.0634C31.0226 54.0634 31.0398 54.0634 31.0571 54.0659C31.2125 54.0782 31.3704 54.0856 31.5284 54.093C31.5728 54.093 31.6196 54.098 31.664 54.098C31.8392 54.1029 32.0144 54.1078 32.1896 54.1078C32.3179 54.1078 32.4486 54.1078 32.5769 54.1029C32.6189 54.1029 32.6608 54.1004 32.7027 54.098C32.7891 54.0955 32.8754 54.093 32.9618 54.0881C33.0111 54.0856 33.0605 54.0832 33.1123 54.0782C33.1888 54.0733 33.2677 54.0683 33.3442 54.0634C33.396 54.0585 33.4503 54.0535 33.5021 54.0511C33.5761 54.0437 33.6501 54.0387 33.7242 54.0313C33.7784 54.0264 33.8327 54.019 33.887 54.0141C33.9585 54.0067 34.0326 53.9968 34.1041 53.9894C34.1584 53.982 34.2127 53.9746 34.2669 53.9672C34.3385 53.9573 34.41 53.9475 34.4816 53.9351C34.5359 53.9277 34.5877 53.9178 34.642 53.9104C34.7135 53.8981 34.7851 53.8858 34.8566 53.8734C34.9084 53.8636 34.9602 53.8562 35.012 53.8463C35.0861 53.8315 35.1601 53.8167 35.2341 53.8019C35.2834 53.792 35.3303 53.7822 35.3797 53.7723C35.4611 53.755 35.5425 53.7353 35.6239 53.718C35.6634 53.7081 35.7029 53.7007 35.7423 53.6909C35.8632 53.6613 35.9817 53.6317 36.1025 53.5996C36.1223 53.5946 36.1396 53.5897 36.1593 53.5848C36.2604 53.5576 36.3591 53.5305 36.4603 53.5009C36.5047 53.4886 36.5466 53.4738 36.591 53.4614C36.6651 53.4392 36.7391 53.417 36.8131 53.3923C36.8624 53.3775 36.9118 53.3603 36.9587 53.343C37.0277 53.3208 37.0944 53.2986 37.1634 53.2739C37.2153 53.2566 37.2646 53.2369 37.3164 53.2196C37.3806 53.1974 37.4472 53.1728 37.5113 53.1481C37.5631 53.1283 37.6149 53.1086 37.6667 53.0889C37.7309 53.0642 37.7926 53.0395 37.8567 53.0149C37.9085 52.9951 37.9603 52.9729 38.0122 52.9507C38.0738 52.9236 38.1355 52.8989 38.1972 52.8718C38.249 52.8496 38.2984 52.8273 38.3502 52.8051C38.4118 52.778 38.4735 52.7484 38.5352 52.7213C38.5845 52.6991 38.6339 52.6768 38.6832 52.6522C38.7474 52.6226 38.8091 52.5905 38.8732 52.5609C38.9201 52.5387 38.967 52.514 39.0138 52.4918C39.0829 52.4573 39.1495 52.4227 39.2162 52.3882C39.2556 52.366 39.2976 52.3462 39.337 52.324C39.4431 52.2673 39.5468 52.2105 39.6504 52.1513C39.6874 52.1316 39.7244 52.1094 39.7614 52.0872C39.8305 52.0477 39.8996 52.0082 39.9662 51.9688C40.0131 51.9416 40.0599 51.912 40.1043 51.8849C40.1611 51.8503 40.2203 51.8158 40.277 51.7788C40.3264 51.7492 40.3733 51.7171 40.4226 51.685C40.4769 51.6505 40.5312 51.616 40.583 51.5814C40.6323 51.5493 40.6817 51.5148 40.731 51.4827C40.7828 51.4482 40.8346 51.4136 40.8864 51.3766C40.9358 51.3421 40.9851 51.3076 41.0345 51.273C41.0838 51.2385 41.1332 51.2015 41.1825 51.1645C41.2319 51.1274 41.2812 51.0929 41.3305 51.0559C41.3799 51.0189 41.4268 50.9843 41.4736 50.9473C41.523 50.9103 41.5723 50.8733 41.6192 50.8338C41.6661 50.7968 41.713 50.7598 41.7598 50.7228C41.8092 50.6833 41.8561 50.6463 41.9054 50.6069C41.9523 50.5699 41.9967 50.5304 42.0436 50.4909C42.0904 50.4514 42.1373 50.412 42.1842 50.3725C42.2286 50.333 42.273 50.2935 42.3199 50.2541C42.3668 50.2121 42.4136 50.1726 42.4605 50.1307C42.4975 50.0962 42.5345 50.0616 42.5715 50.0271C42.6678 49.9383 42.764 49.847 42.8602 49.7557C42.8997 49.7187 42.9392 49.6792 42.9786 49.6422C43.0255 49.5953 43.0724 49.5484 43.1193 49.4991C43.1587 49.4596 43.1958 49.4201 43.2352 49.3807C43.2821 49.3338 43.3265 49.2844 43.3734 49.2351C43.4104 49.1956 43.4474 49.1561 43.4844 49.1167C43.5313 49.0673 43.5757 49.018 43.6201 48.9662C43.6571 48.9267 43.6917 48.8848 43.7287 48.8453C43.7731 48.7935 43.8175 48.7441 43.8619 48.6923C43.8964 48.6528 43.931 48.6109 43.9655 48.569C44.0099 48.5171 44.0543 48.4629 44.0987 48.4111C44.1333 48.3716 44.1654 48.3296 44.1974 48.2902C44.2418 48.2359 44.2838 48.1816 44.3282 48.1273C44.3603 48.0879 44.3899 48.0459 44.422 48.0064C44.4664 47.9497 44.5108 47.8929 44.5527 47.8362C44.5799 47.7992 44.6095 47.7597 44.6366 47.7227C44.681 47.661 44.7254 47.6018 44.7698 47.5401C44.7896 47.5105 44.8118 47.4809 44.8315 47.4538C44.9968 47.2194 45.1572 46.9801 45.3101 46.7358C45.3299 46.7062 45.3471 46.6766 45.3669 46.647C45.4088 46.5804 45.4483 46.5113 45.4902 46.4447C45.5125 46.4077 45.5347 46.3707 45.5569 46.3337C45.5963 46.2671 45.6333 46.2004 45.6728 46.1338C45.695 46.0944 45.7197 46.0549 45.7419 46.0129C45.7789 45.9463 45.8159 45.8797 45.8529 45.8131C45.8751 45.7711 45.8973 45.7292 45.9195 45.6897C45.9541 45.6231 45.9911 45.5565 46.0256 45.4874C46.0478 45.4455 46.0676 45.4035 46.0898 45.3616C46.1243 45.2925 46.1589 45.2259 46.1909 45.1568C46.2107 45.1149 46.2304 45.0729 46.2501 45.031C46.2847 44.9594 46.3168 44.8904 46.3488 44.8188C46.3661 44.7793 46.3834 44.7399 46.4031 44.7004C46.4352 44.6264 46.4697 44.5523 46.5018 44.4783C46.5166 44.4438 46.5314 44.4093 46.5437 44.3747C46.5783 44.2933 46.6128 44.2119 46.6449 44.1305C46.6498 44.1206 46.6548 44.1083 46.6572 44.0984C46.7781 43.7999 46.8891 43.4939 46.9928 43.1855C47.0026 43.1584 47.01 43.1312 47.0199 43.1041C47.0471 43.0227 47.0717 42.9413 47.0989 42.8574C47.1112 42.8179 47.1235 42.7809 47.1359 42.7414C47.1605 42.6625 47.1828 42.5835 47.205 42.5046C47.2173 42.4626 47.2296 42.4207 47.242 42.3763C47.2642 42.2998 47.2839 42.2208 47.3061 42.1419C47.3184 42.0975 47.3283 42.0531 47.3406 42.0087C47.3604 41.9297 47.3801 41.8532 47.3974 41.7743C47.4073 41.7299 47.4196 41.6855 47.4295 41.6386C47.4467 41.5596 47.4665 41.4807 47.4813 41.4017C47.4911 41.3573 47.501 41.3129 47.5084 41.2685C47.5257 41.1871 47.5405 41.1081 47.5578 41.0267C47.5652 40.9848 47.5726 40.9428 47.58 40.9009C47.5948 40.817 47.612 40.7331 47.6244 40.6468C47.6293 40.6122 47.6342 40.5777 47.6416 40.5431C47.7847 39.6599 47.8612 38.752 47.8612 37.8243C47.8612 37.6911 47.8612 37.5554 47.8563 37.4221C47.8489 37.1137 47.8292 36.8053 47.8045 36.4994C48.7618 35.8555 49.6524 35.2041 50.4691 34.5454C50.4789 34.538 50.4888 34.5281 50.4987 34.5207C50.6171 34.4245 50.7355 34.3307 50.8515 34.2345C50.8712 34.2172 50.8934 34.2 50.9132 34.1827C51.0316 34.084 51.15 33.9853 51.266 33.8842C51.2758 33.8743 51.2882 33.8669 51.298 33.857C51.5522 33.6374 51.8013 33.4179 52.0382 33.1983C52.0579 33.181 52.0777 33.1613 52.0974 33.144C52.1912 33.0577 52.2849 32.9688 52.3762 32.8825C52.4058 32.8553 52.433 32.8282 52.4626 32.8011C52.5464 32.7196 52.6303 32.6382 52.7142 32.5568C52.7414 32.5297 52.7685 32.505 52.7932 32.4779C52.8919 32.3792 52.9881 32.2805 53.0843 32.1818H53.0769ZM44.0667 42.2924C44.0149 42.4429 43.9581 42.5934 43.9014 42.7414C43.8964 42.7562 43.889 42.771 43.8841 42.7858C43.7681 43.0794 43.6423 43.3681 43.5091 43.6494C43.5017 43.6642 43.4943 43.679 43.4893 43.6938C43.3537 43.9775 43.2081 44.2538 43.0527 44.5252C43.0452 44.5375 43.0403 44.5474 43.0329 44.5598C42.9564 44.6954 42.875 44.8287 42.7936 44.9594C42.7887 44.9693 42.7813 44.9767 42.7763 44.9866C42.6949 45.1173 42.611 45.2456 42.5271 45.3715C42.5247 45.3764 42.5222 45.3789 42.5197 45.3838C42.4334 45.5121 42.3446 45.6379 42.2533 45.7613C42.2434 45.7761 42.2335 45.7884 42.2237 45.8032C42.0436 46.0499 41.8536 46.2868 41.6562 46.5187C41.6439 46.5335 41.6315 46.5483 41.6167 46.5631C41.4194 46.7926 41.2146 47.0146 41.0024 47.2293C40.9901 47.2416 40.9753 47.2564 40.9629 47.2687C40.8568 47.3748 40.7508 47.4785 40.6422 47.5796C40.6323 47.5895 40.62 47.5993 40.6101 47.6092C40.5065 47.7054 40.4004 47.8017 40.2943 47.8929C40.2845 47.9028 40.2721 47.9127 40.2622 47.9201C40.1512 48.0163 40.0377 48.1101 39.9218 48.2038C39.9045 48.2186 39.8872 48.2309 39.87 48.2458C39.7565 48.337 39.6405 48.4259 39.5221 48.5147C39.5221 48.5147 39.5196 48.5147 39.5172 48.5171C39.3987 48.606 39.2778 48.6898 39.1569 48.7737C39.1347 48.7885 39.115 48.8033 39.0928 48.8181C38.9719 48.902 38.8485 48.981 38.7227 49.0599C38.7227 49.0599 38.7178 49.0599 38.7178 49.0624C38.5969 49.1389 38.4735 49.2129 38.3477 49.2844C38.3255 49.2968 38.3033 49.3116 38.2786 49.3239C38.1528 49.3955 38.027 49.4646 37.8987 49.5336C37.8814 49.5435 37.8641 49.5509 37.8469 49.5608C37.7284 49.6225 37.61 49.6817 37.4916 49.7384C37.4718 49.7483 37.4496 49.7581 37.4299 49.768C37.3016 49.8297 37.1708 49.8889 37.0376 49.9457C37.0129 49.9555 36.9883 49.9679 36.9611 49.9777C36.8378 50.0295 36.7119 50.0814 36.5861 50.1307C36.5738 50.1356 36.5614 50.1406 36.5491 50.1455C36.4134 50.1973 36.2777 50.2467 36.142 50.2935C36.1124 50.3034 36.0828 50.3133 36.0532 50.3231C35.915 50.37 35.7769 50.4144 35.6362 50.4564C35.6338 50.4564 35.6288 50.4564 35.6264 50.4588C35.4907 50.4983 35.3525 50.5353 35.2119 50.5723C35.1823 50.5797 35.1502 50.5871 35.1206 50.5945C34.98 50.6291 34.8393 50.6611 34.6987 50.6908C34.6765 50.6957 34.6568 50.6981 34.6346 50.7031C34.5063 50.7302 34.378 50.7524 34.2472 50.7746C34.2201 50.7796 34.1905 50.7845 34.1633 50.7894C34.0202 50.8116 33.8771 50.8338 33.734 50.8511C33.7044 50.8561 33.6748 50.8585 33.6452 50.861C33.512 50.8758 33.3812 50.8906 33.248 50.9029C33.2283 50.9029 33.2085 50.9079 33.1863 50.9079C33.0407 50.9202 32.8927 50.9276 32.7447 50.935C32.7101 50.935 32.6756 50.9375 32.6411 50.9399C32.4906 50.9449 32.3401 50.9498 32.1871 50.9498C32.0341 50.9498 31.8762 50.9473 31.7233 50.9399C31.6739 50.9399 31.6246 50.935 31.5752 50.9325C31.4716 50.9276 31.368 50.9227 31.2644 50.9153C31.2051 50.9103 31.1484 50.9054 31.0892 50.9005C30.9954 50.8931 30.9017 50.8832 30.8079 50.8733C30.7462 50.8659 30.687 50.8585 30.6278 50.8511C30.5365 50.8388 30.4477 50.8264 30.3564 50.8141C30.2948 50.8042 30.2355 50.7944 30.1763 50.7845C30.0875 50.7697 29.9987 50.7549 29.9099 50.7376C29.8507 50.7253 29.7914 50.7154 29.7322 50.7031C29.6434 50.6858 29.5546 50.6661 29.4658 50.6463C29.409 50.634 29.3523 50.6192 29.2955 50.6069C29.2042 50.5847 29.1154 50.5625 29.0266 50.5378C28.9723 50.523 28.9181 50.5082 28.8638 50.4934C28.7725 50.4662 28.6787 50.4391 28.5874 50.412C28.5381 50.3972 28.4863 50.3799 28.4369 50.3651C28.3407 50.333 28.247 50.3009 28.1508 50.2689C28.1063 50.2541 28.0619 50.2368 28.0175 50.222C27.9164 50.185 27.8152 50.1455 27.7141 50.106C27.677 50.0912 27.64 50.0789 27.6055 50.0641C27.492 50.0172 27.3785 49.9703 27.2675 49.921C27.2453 49.9111 27.2231 49.9012 27.2009 49.8914C26.6532 49.6447 26.1252 49.3609 25.6194 49.0402C25.6021 49.0303 25.5873 49.018 25.5701 49.0081C25.464 48.939 25.3579 48.87 25.2518 48.7984C24.1638 48.0508 23.1917 47.1355 22.3726 46.0845C24.4993 45.7958 26.7568 45.3443 29.0908 44.73C29.113 44.7251 29.1352 44.7177 29.1574 44.7127C29.5102 44.619 29.863 44.5227 30.2183 44.4216C30.2577 44.4117 30.2947 44.3994 30.3342 44.3895C30.6796 44.2908 31.0275 44.1897 31.3754 44.0836C31.4223 44.0688 31.4667 44.0564 31.5135 44.0416C31.859 43.9355 32.2068 43.827 32.5572 43.7135C32.6016 43.6987 32.646 43.6839 32.6929 43.6691C33.0457 43.5531 33.401 43.4372 33.7562 43.3138C33.7883 43.3015 33.8204 43.2916 33.8549 43.2793C34.225 43.151 34.5976 43.0202 34.9701 42.8845C35.2366 42.7883 35.5005 42.6896 35.7621 42.5909C35.8188 42.5687 35.8756 42.549 35.9298 42.5268C36.1889 42.4281 36.4455 42.3294 36.6996 42.2282C36.7317 42.2159 36.7638 42.2036 36.7958 42.1888C37.0376 42.0926 37.2769 41.9963 37.5162 41.8976C37.5533 41.8828 37.5903 41.868 37.6248 41.8532C37.8839 41.7471 38.1404 41.6386 38.3946 41.53C38.4291 41.5152 38.4637 41.5004 38.4982 41.4856C39.0237 41.2611 39.5418 41.0317 40.0501 40.7973C40.0772 40.7849 40.1068 40.7726 40.134 40.7578C40.6496 40.5185 41.1578 40.2767 41.6562 40.03C41.6661 40.025 41.6784 40.0201 41.6883 40.0127C42.7714 39.4773 43.8101 38.9222 44.7994 38.3572C44.7476 39.7339 44.491 41.0588 44.0593 42.2949L44.0667 42.2924Z"/>
<path class="favicon-path" d="M18.9283 40.383C19.2071 40.3559 19.4933 40.3238 19.782 40.2868C19.6364 39.4874 19.56 38.6658 19.56 37.822C19.56 35.1945 20.3026 32.7495 21.5806 30.6968C21.7138 30.4821 21.847 30.265 21.9679 30.0405L23.3619 27.4524H23.357L29.0661 18.6075L32.1896 13.7644L35.2267 18.4718L41.0221 27.4524H41.0024L42.4087 30.043C42.5296 30.2675 42.6628 30.4821 42.7961 30.6992C43.0601 31.1211 43.2994 31.5628 43.514 32.0167C43.9754 31.7429 44.4244 31.4641 44.8586 31.1853C45.283 30.9114 45.6777 30.645 46.0478 30.3834C45.8233 29.9393 45.5815 29.5051 45.32 29.0808L33.4898 9.93527C32.8804 8.99033 31.4963 8.99033 30.8869 9.93527L19.0566 29.0808C17.5023 31.5948 16.5968 34.4691 16.5278 37.4224C16.5253 37.5556 16.5228 37.6888 16.5228 37.8245C16.5228 38.7448 16.5968 39.6478 16.7375 40.5261C17.3839 40.5113 18.1117 40.4669 18.9283 40.3855V40.383Z"/>
<path class="favicon-path" d="M16.55 13.4981L20.352 14.5911L16.55 15.684C16.3107 15.7531 16.1207 15.9406 16.0516 16.1824L14.9587 19.9844L13.8657 16.1824C13.7966 15.9431 13.6091 15.7531 13.3673 15.684L9.56537 14.5911L13.3673 13.4981C13.6066 13.429 13.7966 13.2415 13.8657 12.9997L14.9587 9.19775L16.0516 12.9997C16.1207 13.239 16.3082 13.429 16.55 13.4981Z"/>
</svg>
