<svg width="1604" height="1003" viewBox="0 0 1604 1003" fill="none" xmlns="http://www.w3.org/2000/svg">
<g clip-path="url(#clip0_1802_99120)">
<rect width="1604" height="1003" fill="white"/>
<g filter="url(#filter0_f_1802_99120)">
<circle cx="692.5" cy="431.5" r="289.5" fill="#B3FF4C" fill-opacity="0.1"/>
</g>
<mask id="mask0_1802_99120" style="mask-type:alpha" maskUnits="userSpaceOnUse" x="-470" y="-102" width="1589" height="1535">
<rect x="531.113" y="1432.94" width="1284.75" height="935.98" transform="rotate(-141.164 531.113 1432.94)" fill="url(#paint0_linear_1802_99120)"/>
</mask>
<g mask="url(#mask0_1802_99120)">
<path d="M-114.174 317.408C0.372592 175.053 197.737 143.799 326.614 247.604C340.13 258.491 352.405 270.47 363.36 283.297C236.662 215.544 67.8254 253.946 -34.7288 381.397C-137.283 508.849 -138.689 682.018 -45.5242 791.446C-60.3883 783.477 -74.7058 774.037 -88.2225 763.15C-217.1 659.345 -228.72 459.762 -114.174 317.408Z" fill="url(#paint1_linear_1802_99120)"/>
<g filter="url(#filter1_f_1802_99120)">
<path d="M-105.347 324.518C9.1998 182.163 197.737 143.799 326.614 247.604C340.13 258.491 352.405 270.47 363.36 283.297C236.662 215.544 58.9982 246.836 -43.556 374.287C-146.11 501.739 -138.689 682.018 -45.5242 791.446C-60.3883 783.477 -74.7058 774.037 -88.2225 763.15C-217.1 659.345 -219.893 466.872 -105.347 324.518Z" fill="url(#paint2_linear_1802_99120)"/>
</g>
<g filter="url(#filter2_f_1802_99120)">
<path d="M-100.935 328.07C13.6109 185.716 210.114 146.491 338.992 250.296C352.508 261.183 364.783 273.162 375.738 285.989C249.04 218.235 54.5821 243.279 -47.9722 370.73C-150.526 498.181 -126.662 690.796 -33.4969 800.224C-48.3609 792.254 -62.6784 782.814 -76.1951 771.927C-205.072 668.122 -215.482 470.425 -100.935 328.07Z" fill="url(#paint3_linear_1802_99120)"/>
</g>
<g filter="url(#filter3_f_1802_99120)">
<path d="M-100.935 328.07C13.6109 185.716 210.114 146.491 338.992 250.296C352.508 261.183 364.783 273.162 375.738 285.989C249.04 218.235 54.5821 243.279 -47.9722 370.73C-150.526 498.181 -126.662 690.796 -33.4969 800.224C-48.3609 792.254 -62.6784 782.814 -76.1951 771.927C-205.072 668.122 -215.482 470.425 -100.935 328.07Z" fill="url(#paint4_linear_1802_99120)"/>
</g>
<g filter="url(#filter4_f_1802_99120)">
<path d="M-100.935 328.07C13.6109 185.716 210.114 146.491 338.992 250.296C352.508 261.183 364.783 273.162 375.738 285.989C249.04 218.235 54.5821 243.279 -47.9722 370.73C-150.526 498.181 -126.662 690.796 -33.4969 800.224C-48.3609 792.254 -62.6784 782.814 -76.1951 771.927C-205.072 668.122 -215.482 470.425 -100.935 328.07Z" fill="url(#paint5_linear_1802_99120)"/>
</g>
<g filter="url(#filter5_f_1802_99120)">
<path d="M-69.3321 338.515C45.2142 196.16 210.114 146.491 338.992 250.296C352.508 261.183 364.783 273.162 375.738 285.989C249.04 218.235 43.1341 228.126 -62.3164 359.176C-194.442 523.377 -126.662 690.796 -33.4969 800.224C-48.3609 792.254 -62.6784 782.814 -76.1951 771.927C-205.072 668.122 -183.878 480.87 -69.3321 338.515Z" fill="url(#paint6_linear_1802_99120)"/>
</g>
<g filter="url(#filter6_f_1802_99120)">
<path d="M-69.3301 338.516C45.2162 196.162 210.604 113.68 339.482 217.486C352.998 228.373 372.38 295.929 383.336 308.756C256.637 241.002 43.1361 228.127 -62.3144 359.178C-194.44 523.379 -102.236 686.999 -9.07081 796.427C1.27789 783.566 -62.3976 818.065 -75.9143 807.177C-204.792 703.372 -183.876 480.871 -69.3301 338.516Z" fill="url(#paint7_linear_1802_99120)"/>
</g>
<g filter="url(#filter7_f_1802_99120)">
<path d="M-69.3301 338.516C45.2162 196.162 210.604 113.68 339.482 217.486C352.998 228.373 372.38 295.929 383.336 308.756C256.637 241.002 43.1361 228.127 -62.3144 359.178C-194.44 523.379 -102.236 686.999 -9.07081 796.427C1.27789 783.566 -62.3976 818.065 -75.9143 807.177C-204.792 703.372 -183.876 480.871 -69.3301 338.516Z" fill="url(#paint8_linear_1802_99120)"/>
</g>
<g filter="url(#filter8_f_1802_99120)">
<path d="M-69.3301 338.516C45.2162 196.162 210.604 113.68 339.482 217.486C352.998 228.373 372.38 295.929 383.336 308.756C256.637 241.002 43.1361 228.127 -62.3144 359.178C-194.44 523.379 -102.236 686.999 -9.07081 796.427C1.27789 783.566 -62.3976 818.065 -75.9143 807.177C-204.792 703.372 -183.876 480.871 -69.3301 338.516Z" fill="url(#paint9_linear_1802_99120)"/>
</g>
</g>
</g>
<defs>
<filter id="filter0_f_1802_99120" x="203" y="-58" width="979" height="979" filterUnits="userSpaceOnUse" color-interpolation-filters="sRGB">
<feFlood flood-opacity="0" result="BackgroundImageFix"/>
<feBlend mode="normal" in="SourceGraphic" in2="BackgroundImageFix" result="shape"/>
<feGaussianBlur stdDeviation="100" result="effect1_foregroundBlur_1802_99120"/>
</filter>
<filter id="filter1_f_1802_99120" x="-202.747" y="174.226" width="580.631" height="631.744" filterUnits="userSpaceOnUse" color-interpolation-filters="sRGB">
<feFlood flood-opacity="0" result="BackgroundImageFix"/>
<feBlend mode="normal" in="SourceGraphic" in2="BackgroundImageFix" result="shape"/>
<feGaussianBlur stdDeviation="7.26216" result="effect1_foregroundBlur_1802_99120"/>
</filter>
<filter id="filter2_f_1802_99120" x="-223.897" y="148.154" width="643.208" height="695.642" filterUnits="userSpaceOnUse" color-interpolation-filters="sRGB">
<feFlood flood-opacity="0" result="BackgroundImageFix"/>
<feBlend mode="normal" in="SourceGraphic" in2="BackgroundImageFix" result="shape"/>
<feGaussianBlur stdDeviation="21.7865" result="effect1_foregroundBlur_1802_99120"/>
</filter>
<filter id="filter3_f_1802_99120" x="-243.263" y="128.788" width="681.94" height="734.373" filterUnits="userSpaceOnUse" color-interpolation-filters="sRGB">
<feFlood flood-opacity="0" result="BackgroundImageFix"/>
<feBlend mode="normal" in="SourceGraphic" in2="BackgroundImageFix" result="shape"/>
<feGaussianBlur stdDeviation="31.4693" result="effect1_foregroundBlur_1802_99120"/>
</filter>
<filter id="filter4_f_1802_99120" x="-243.263" y="128.788" width="681.94" height="734.373" filterUnits="userSpaceOnUse" color-interpolation-filters="sRGB">
<feFlood flood-opacity="0" result="BackgroundImageFix"/>
<feBlend mode="normal" in="SourceGraphic" in2="BackgroundImageFix" result="shape"/>
<feGaussianBlur stdDeviation="31.4693" result="effect1_foregroundBlur_1802_99120"/>
</filter>
<filter id="filter5_f_1802_99120" x="-314.432" y="44.9271" width="840.255" height="905.38" filterUnits="userSpaceOnUse" color-interpolation-filters="sRGB">
<feFlood flood-opacity="0" result="BackgroundImageFix"/>
<feBlend mode="normal" in="SourceGraphic" in2="BackgroundImageFix" result="shape"/>
<feGaussianBlur stdDeviation="75.0423" result="effect1_foregroundBlur_1802_99120"/>
</filter>
<filter id="filter6_f_1802_99120" x="-256.183" y="78.8994" width="731.506" height="822.424" filterUnits="userSpaceOnUse" color-interpolation-filters="sRGB">
<feFlood flood-opacity="0" result="BackgroundImageFix"/>
<feBlend mode="normal" in="SourceGraphic" in2="BackgroundImageFix" result="shape"/>
<feGaussianBlur stdDeviation="45.9937" result="effect1_foregroundBlur_1802_99120"/>
</filter>
<filter id="filter7_f_1802_99120" x="-362.694" y="-27.6122" width="944.529" height="1035.45" filterUnits="userSpaceOnUse" color-interpolation-filters="sRGB">
<feFlood flood-opacity="0" result="BackgroundImageFix"/>
<feBlend mode="normal" in="SourceGraphic" in2="BackgroundImageFix" result="shape"/>
<feGaussianBlur stdDeviation="99.2495" result="effect1_foregroundBlur_1802_99120"/>
</filter>
<filter id="filter8_f_1802_99120" x="-459.523" y="-124.441" width="1138.19" height="1229.1" filterUnits="userSpaceOnUse" color-interpolation-filters="sRGB">
<feFlood flood-opacity="0" result="BackgroundImageFix"/>
<feBlend mode="normal" in="SourceGraphic" in2="BackgroundImageFix" result="shape"/>
<feGaussianBlur stdDeviation="147.664" result="effect1_foregroundBlur_1802_99120"/>
</filter>
<linearGradient id="paint0_linear_1802_99120" x1="1173.49" y1="1432.94" x2="1173.49" y2="2368.92" gradientUnits="userSpaceOnUse">
<stop stop-color="#C4C4C4" stop-opacity="0"/>
<stop offset="0.380208" stop-color="#C4C4C4"/>
<stop offset="0.578125" stop-color="#C4C4C4"/>
<stop offset="1" stop-color="#C4C4C4" stop-opacity="0"/>
</linearGradient>
<linearGradient id="paint1_linear_1802_99120" x1="-185.046" y1="685.163" x2="230.041" y2="169.819" gradientUnits="userSpaceOnUse">
<stop stop-color="#65A3FF"/>
<stop offset="1" stop-color="#4122FF"/>
</linearGradient>
<linearGradient id="paint2_linear_1802_99120" x1="-180.632" y1="688.718" x2="234.455" y2="173.374" gradientUnits="userSpaceOnUse">
<stop stop-color="#65A3FF"/>
<stop offset="1" stop-color="#4122FF"/>
</linearGradient>
<linearGradient id="paint3_linear_1802_99120" x1="-172.191" y1="694.606" x2="246.007" y2="175.401" gradientUnits="userSpaceOnUse">
<stop stop-color="#65A3FF"/>
<stop offset="1" stop-color="#4122FF"/>
</linearGradient>
<linearGradient id="paint4_linear_1802_99120" x1="-172.191" y1="694.606" x2="246.007" y2="175.401" gradientUnits="userSpaceOnUse">
<stop stop-color="#65A3FF"/>
<stop offset="1" stop-color="#4122FF"/>
</linearGradient>
<linearGradient id="paint5_linear_1802_99120" x1="-172.191" y1="694.606" x2="246.007" y2="175.401" gradientUnits="userSpaceOnUse">
<stop stop-color="#65A3FF"/>
<stop offset="1" stop-color="#4122FF"/>
</linearGradient>
<linearGradient id="paint6_linear_1802_99120" x1="-160.054" y1="704.383" x2="258.145" y2="185.177" gradientUnits="userSpaceOnUse">
<stop stop-color="#65A3FF"/>
<stop offset="1" stop-color="#4122FF"/>
</linearGradient>
<linearGradient id="paint7_linear_1802_99120" x1="-170.669" y1="730.857" x2="280.861" y2="170.269" gradientUnits="userSpaceOnUse">
<stop stop-color="#65A3FF"/>
<stop offset="1" stop-color="#4122FF"/>
</linearGradient>
<linearGradient id="paint8_linear_1802_99120" x1="-170.669" y1="730.857" x2="280.861" y2="170.269" gradientUnits="userSpaceOnUse">
<stop stop-color="#65A3FF"/>
<stop offset="1" stop-color="#4122FF"/>
</linearGradient>
<linearGradient id="paint9_linear_1802_99120" x1="-170.669" y1="730.857" x2="280.861" y2="170.269" gradientUnits="userSpaceOnUse">
<stop stop-color="#65A3FF"/>
<stop offset="1" stop-color="#4122FF"/>
</linearGradient>
<clipPath id="clip0_1802_99120">
<rect width="1604" height="1003" fill="white"/>
</clipPath>
</defs>
</svg>
