<svg width="191" height="52" viewBox="0 0 191 52" fill="none" xmlns="http://www.w3.org/2000/svg">
<path d="M61.5184 16.703C62.8025 17.4406 64.6239 16.6756 65.5983 14.9908C66.5728 13.306 66.3178 11.3389 65.0337 10.6012C63.7496 9.86354 61.9282 10.6285 60.9537 12.3133C59.9792 13.9982 60.2342 15.9653 61.5184 16.703Z" fill="#975EC9"/>
<path d="M96.7879 16.703C98.072 17.4406 99.8934 16.6756 100.868 14.9908C101.842 13.306 101.587 11.3389 100.303 10.6012C99.0191 9.86354 97.1977 10.6285 96.2232 12.3133C95.2488 13.9982 95.5038 15.9653 96.7879 16.703Z" fill="#975EC9"/>
<path d="M184.728 27.2306C184.683 27.2033 184.628 27.2124 184.573 27.2306L182.533 27.7042C182.934 26.6842 183.326 25.5367 182.916 24.5167C182.816 24.2708 182.57 24.0067 182.324 24.116C182.206 24.1706 182.142 24.289 182.078 24.3983C181.513 25.4001 180.694 26.2288 179.856 27.0211C178.107 28.6695 177.57 29.2706 175.43 30.3908C174.128 31.0738 171.323 32.2668 170.011 31.0647C169.419 30.5183 169.592 29.4163 169.756 28.7242V28.6877C170.558 29.1613 171.441 29.0702 172.279 28.7515C174.556 27.8772 176.495 25.737 177.625 23.6242C178.463 22.0578 178.982 19.7172 177.57 18.3147C177.233 17.9778 176.705 17.7865 176.004 17.7319C175.002 17.6772 174 17.8867 172.989 18.333C170.731 19.353 168.7 21.0924 167.161 23.187C165.904 24.4711 164.638 25.7552 163.281 26.9392C162.398 27.7042 161.432 28.6513 160.385 29.1795C160.112 29.307 160.002 29.2251 160.066 28.9336C160.13 28.6422 160.257 28.2961 160.458 27.8772C162.279 24.1251 165.458 19.189 167.753 15.4733C171.887 15.6282 175.503 15.8558 175.776 15.7921C176.878 15.5371 176.596 13.151 176.213 12.4407C175.922 11.8942 175.002 11.8487 174.474 11.8123C174.137 11.7941 172.015 11.7303 169.346 11.7303C169.811 10.1457 169.629 9.5446 169.574 9.06193C169.538 8.84335 169.41 8.57925 169.201 8.26961C168.991 7.95997 168.745 7.67765 168.472 7.43176C168.199 7.18586 167.935 7.01283 167.68 6.93086C167.425 6.8489 167.224 6.91265 167.097 7.13122C166.077 8.76139 165.039 10.3733 163.809 11.8487C160.84 11.9762 158.145 12.2403 157.097 12.7594C156.196 13.2057 155.658 13.7885 155.385 14.7265C155.312 14.9724 155.012 16.038 155.604 15.8012C156.578 15.4278 159.146 15.3185 162.124 15.3367C160.603 17.6408 159.137 19.9813 157.671 22.3219C155.549 24.4074 153.591 26.6386 151.169 28.4327C150.695 28.7879 150.221 29.1158 150.057 29.1886C149.72 29.3343 149.675 29.0976 149.83 28.624C150.731 25.9101 152.862 23.4511 154.575 21.2108C156.205 19.0706 152.243 18.0051 151.861 18.2328C150.659 18.9614 149.639 19.7628 148.81 20.6371V20.5642C148.154 16.6664 144.238 17.8867 143.409 18.2146C140.978 19.1617 138.983 21.0469 137.49 23.2508C135.468 25.3181 133.428 27.3763 131.042 29.0156C130.714 29.2433 130.149 29.6349 130.249 29.052C130.477 27.7315 131.315 26.4201 131.943 25.2635C132.69 23.9065 133.519 22.586 134.466 21.3565C135.14 20.209 134.411 18.9613 133.319 18.4149C132.098 17.8047 131.024 18.7063 130.24 19.5897C128.856 21.1471 126.37 25.482 123.619 28.8152C123.109 29.4345 122.581 30.2268 121.825 30.5547C121.689 30.6184 121.589 30.6002 121.589 30.4272C121.589 29.1067 123.956 24.6442 125.386 22.504C125.751 21.9576 126.789 20.8283 126.516 19.8903C126.206 18.843 124.858 17.9596 123.765 18.1964C123.119 18.333 122.017 19.5169 120.842 21.2381C119.421 22.4403 118.264 23.952 116.935 25.2452C115.505 26.6386 113.957 27.9227 112.318 29.0702H112.281C113.538 26.8845 114.722 24.6624 116.015 22.504C116.653 21.4385 117.627 20.2728 117.226 18.9431C116.853 17.7046 115.687 17.1581 114.458 17.4587C113.784 17.6226 113.155 18.078 112.573 18.8338L111.78 20.036C111.525 19.1344 111.106 18.5242 110.505 18.2146C107.5 16.6572 104.221 19.0069 101.981 21.484C100.824 22.5131 99.8134 23.7517 98.7206 24.8354C97.4274 26.1195 96.0795 27.349 94.6224 28.4327C94.3856 28.6058 94.167 28.7697 93.9666 28.9063C93.7663 29.0429 93.6115 29.134 93.5113 29.1886C93.2381 29.3161 93.1379 29.2342 93.2108 28.9427C93.2836 28.6513 93.4202 28.3052 93.6206 27.8863C94.5677 25.9192 95.7334 24.0886 97.0813 22.3674C97.3545 22.0122 97.655 21.6297 97.9829 21.2017C99.0393 19.4076 96.3891 18.0415 94.9502 17.9231C94.3309 17.8776 93.8938 17.996 93.6115 18.2965C92.3365 19.6808 91.2072 21.2837 90.2601 22.9958C88.2018 25.0995 86.1254 27.1486 83.7394 28.8972C83.5481 29.0338 83.4024 29.1249 83.3022 29.1795C83.029 29.307 82.9106 29.2251 82.9653 28.9336C83.0199 28.6422 83.1292 28.2961 83.3022 27.8772C83.9124 26.4292 84.6228 25.0358 85.4424 23.697C85.8522 23.0322 86.2711 22.3674 86.7447 21.739C87.1363 21.2199 87.5461 20.6735 87.4277 19.9722C87.2729 19.0615 86.2165 18.0324 85.2602 18.0324C85.2329 18.0324 85.2238 18.0324 85.2238 18.0142C85.2238 17.996 85.2147 17.996 85.1874 17.996C83.621 17.8503 82.1456 18.6062 80.9799 19.5988C79.204 21.1015 77.8744 23.1233 76.5356 24.9994C76.8635 24.5349 77.0456 23.7881 77.2642 23.2599C77.5192 22.6497 77.8106 22.0487 78.0565 21.4294C78.266 20.8921 78.4208 20.3092 78.3479 19.7355C78.1931 18.4969 76.9454 17.8867 75.8071 17.9869C74.359 18.1144 73.0385 18.9614 72.0003 19.9267C70.8983 20.9558 69.9512 22.1397 69.1042 23.3874C70.8619 19.2163 71.7088 19.0615 71.3263 18.2965C71.0896 17.8412 70.4703 17.7046 69.8783 17.6135C68.9494 17.4587 67.6106 17.7683 67.128 18.6699C66.5998 19.6444 66.0624 20.6826 65.5069 21.7754C64.4869 22.7408 63.5762 23.8428 62.5926 24.8263C61.2994 26.1104 59.9516 27.3399 58.4944 28.4236C58.2576 28.5967 58.0391 28.7606 57.8387 28.8972C57.6383 29.0338 57.4835 29.1249 57.3833 29.1795C57.1101 29.307 57.01 29.2251 57.0828 28.9336C57.1557 28.6422 57.2923 28.2961 57.4926 27.8772C58.4398 25.9101 59.6055 24.0795 60.9533 22.3583C61.2265 22.0031 61.5271 21.6206 61.8549 21.1926C62.9114 19.3985 60.2612 18.0324 58.8223 17.914C58.203 17.8685 57.7658 17.9869 57.4835 18.2874C54.7241 21.2928 52.6021 25.2817 51.7005 29.2615C51.3544 30.7824 51.1632 32.7495 52.3835 33.9516C53.4491 34.999 55.3251 34.8077 56.5182 34.1156C57.2376 33.7057 57.9024 33.1866 58.5126 32.5765C59.6146 31.4745 60.5982 30.2086 61.6182 29.0247C61.9733 28.6149 62.3194 28.2051 62.6655 27.7861C62.1099 29.0884 61.5362 30.4818 60.9442 31.9936C60.7439 32.4945 60.7348 32.9681 60.926 33.4052C61.1173 33.8424 61.3996 34.1793 61.7912 34.407C62.1828 34.6347 62.629 34.7075 63.1481 34.6347C63.6673 34.5618 64.1499 34.234 64.5962 33.6602V33.6238C65.598 32.5674 66.3356 31.3015 67.1371 30.0902C67.984 28.8061 68.831 27.5129 69.6962 26.247C70.3337 25.3181 71.0076 24.4803 71.7088 23.7244C71.1351 25.1542 70.6069 26.5658 70.1242 27.9592C69.6506 29.3526 69.3046 30.6913 69.1042 31.9663C69.0769 32.3943 69.1953 32.8133 69.4412 33.2231C69.6962 33.6329 70.0149 33.9699 70.4156 34.2249C70.8163 34.4799 71.2444 34.5982 71.6997 34.58C72.1551 34.5709 72.5558 34.3524 72.9019 33.9243C73.9674 32.959 74.7415 31.602 75.5338 30.409C76.3626 29.1613 77.164 27.9045 77.9837 26.6569C78.6121 25.7006 79.2769 24.8263 79.9781 24.0249C79.6776 24.626 79.3679 25.2635 79.0583 25.9283C78.7395 26.5931 78.4572 27.2579 78.1931 27.9227C77.7924 28.9336 77.4645 30.0447 77.419 31.1375C77.3462 32.9043 78.1294 34.5709 80.0601 34.6802C80.8797 34.7257 81.6811 34.5163 82.4006 34.1429C83.9761 33.3233 85.151 31.8752 86.2438 30.5092C86.8267 29.7806 87.446 29.0702 88.0561 28.369C87.9742 28.6695 87.8831 28.9701 87.8193 29.2797C87.4733 30.8006 87.282 32.7677 88.5024 33.9699C89.5679 35.0172 91.444 34.8259 92.637 34.1338C93.3565 33.724 94.0213 33.2049 94.6315 32.5947C95.7334 31.4927 96.717 30.2268 97.737 29.0429C97.8554 28.9063 97.9738 28.7606 98.1013 28.6149C98.0284 29.0156 97.9647 29.4163 97.9465 29.8261C97.8736 31.1558 98.0922 32.6675 99.0849 33.642C99.9774 34.5163 101.334 34.6802 102.445 34.1429C102.883 33.9334 103.32 33.6511 103.748 33.2959C104.03 33.0591 104.321 32.7859 104.604 32.5036C104.403 32.9043 104.203 33.2959 104.012 33.6966C103.42 34.9807 102.919 36.3195 102.482 37.6764C101.362 37.8039 100.241 37.9679 99.1395 38.2047C98.3745 38.3686 96.8536 38.6964 97.145 39.7984C97.1906 39.9623 97.2634 40.1172 97.3545 40.2538C98.5475 42.4486 98.6841 42.2118 99.7041 42.0479C99.9227 41.9295 100.569 41.8111 101.425 41.6927C100.815 44.9348 100.751 49.0968 103.912 50.7907C105.132 51.4464 106.926 51.8562 107.764 51.0001C108.101 50.6541 108.174 50.1259 107.855 49.6159C106.334 47.1478 106.307 43.9968 106.853 41.1918C108.411 41.1007 109.722 41.0643 110.159 41.128C111.143 41.0734 112.891 40.2173 112.627 38.9788C112.39 37.8677 110.979 37.5672 110.032 37.4488C109.321 37.3577 108.611 37.3395 107.901 37.3395C108.329 36.0827 108.82 34.8441 109.367 33.6329C109.567 33.5054 109.768 33.3961 109.977 33.305C110.915 32.9043 111.808 32.5218 112.673 31.9754C114.011 31.1193 115.277 30.154 116.452 29.0793C116.698 28.8517 116.935 28.624 117.181 28.3872C115.86 32.1302 116.616 34.7257 119.13 34.8259C121.17 34.8988 122.918 33.4325 124.139 31.9845C124.594 31.4472 125.013 30.9099 125.423 30.3817C125.641 30.0993 125.869 29.8261 126.078 29.5347C125.878 30.0993 125.013 31.684 125.004 31.8479C124.922 33.2049 125.769 34.8988 127.636 34.835C129.903 34.7622 132.535 32.1484 134.976 29.1158C134.894 29.6622 134.849 30.2177 134.876 30.7642C135.049 34.0609 137.735 35.8824 140.859 33.1684C141.697 32.4399 142.444 31.5656 143.09 30.664C143.61 29.9445 144.101 29.2433 144.575 28.5329C144.129 30.2815 143.6 32.877 145.276 34.1702C146.396 35.0354 148.027 34.835 149.192 34.1702C150.531 33.3961 152.48 31.3288 154.192 29.3161C153.782 30.9099 153.673 32.7495 154.921 33.897C156.114 34.9898 158.117 34.9443 159.465 34.1702C160.758 33.4234 161.687 32.3852 162.653 31.265C163.235 30.5911 163.827 29.9172 164.41 29.2524C164.11 30.9099 164.547 32.6949 165.886 33.7968C167.47 35.0991 170.421 35.1265 172.333 34.8532C176.659 34.2249 179.692 32.367 183.089 29.644C183.563 29.2433 184.018 28.8152 184.382 28.3143C184.564 28.0685 184.847 27.7315 184.783 27.431C184.783 27.4218 184.783 27.4127 184.783 27.4036C184.774 27.3581 184.746 27.3035 184.701 27.2852L184.728 27.2306ZM104.431 28.8608C103.903 29.2979 103.229 30.0447 102.491 30.0447C102.318 30.0447 102.318 29.817 102.509 29.3526C103.119 27.8317 104.057 26.3745 104.995 25.0358C105.961 23.6606 107.081 22.3674 108.383 21.2928C108.666 21.056 108.993 20.8283 109.339 20.7008C109.777 20.5369 110.314 20.5915 110.642 20.9558C111.389 21.8028 109.813 23.3419 109.312 23.952C108.411 25.054 107.436 26.1013 106.416 27.094C105.779 27.7133 105.114 28.2961 104.431 28.8699V28.8608ZM147.58 22.0669L146.824 23.1597C146.069 24.0613 145.304 24.9265 144.529 25.7552C143.755 26.584 143.018 27.3126 142.325 27.9592C141.633 28.5967 141.023 29.1067 140.504 29.4801C139.976 29.8534 139.602 30.0447 139.375 30.0447C139.202 30.0447 139.202 29.817 139.393 29.3526C139.584 28.8881 139.885 28.3052 140.295 27.604C140.714 26.9027 141.196 26.1469 141.761 25.3272C142.325 24.5076 142.917 23.7517 143.528 23.0504C144.147 22.3492 144.73 21.7663 145.294 21.3019C145.859 20.8374 146.342 20.6097 146.742 20.6097C147.116 20.6371 147.398 20.7737 147.589 21.0196C147.781 21.2746 147.772 21.6206 147.571 22.076L147.58 22.0669ZM173.463 22.4038C173.7 22.1762 175.366 20.5278 175.749 20.9012C175.776 20.9285 175.803 20.9558 175.821 20.974C175.849 21.0013 175.849 21.0469 175.84 21.1197C175.821 21.1926 175.785 21.311 175.73 21.4567C174.865 23.5513 172.962 26.5476 170.594 27.1395C170.394 27.1942 170.266 27.176 170.221 27.1031C170.904 25.3181 172.097 23.697 173.472 22.3947L173.463 22.4038Z" fill="#975EC9"/>
<path d="M190.91 22.4766C190.828 21.7117 190.527 21.0559 190.145 20.6825C190.564 19.8083 190.573 18.9704 190.09 18.5606C189.58 18.1235 188.651 18.3238 187.804 18.9704C187.44 18.6881 186.921 18.4604 186.329 18.3602C185.09 18.1508 183.988 18.5515 183.87 19.2618C183.751 19.9722 184.653 20.719 185.892 20.9284C186.037 20.9558 186.174 20.9649 186.32 20.974C186.056 21.7208 186.11 22.3947 186.52 22.7499C186.939 23.105 187.622 23.0413 188.314 22.6588C188.314 22.6952 188.314 22.7316 188.323 22.7681C188.469 24.0157 189.161 24.9629 189.871 24.8809C190.582 24.799 191.046 23.7243 190.901 22.4766H190.91Z" fill="#975EC9"/>
<path d="M49.296 30.9008C49.633 28.3417 51.1721 23.4329 51.1721 23.4329C53.6219 16.5297 57.4378 10.938 58.0662 9.96352C58.6582 9.0437 57.966 8.00549 56.9551 7.76871C55.9169 7.52282 54.4325 7.96906 53.6675 8.38799C51.5637 9.52638 50.0701 10.9471 47.4837 13.7703C46.7278 14.599 44.5148 17.3403 42.4202 20.036C40.708 22.2308 39.0596 24.3801 38.3129 25.4274C39.7427 22.7681 42.9393 17.8321 45.6441 13.5517C46.7096 11.876 47.6932 10.3005 48.4673 8.99817C48.9227 8.2696 49.4873 7.32246 49.6968 6.96728C49.9791 6.50282 50.0428 6.12032 50.061 5.583C50.1066 4.41729 49.041 3.6614 47.9755 3.57944C46.6185 3.47926 45.4346 3.92551 44.3236 4.66318C43.3673 5.30068 42.493 6.04746 41.6825 6.858C39.0141 9.34424 29.6247 19.2528 29.3697 19.8356C30.6538 16.976 31.9743 14.1801 33.3404 11.4389C34.1145 9.88155 34.9159 8.36978 35.7173 6.87621C35.7173 6.8671 35.7355 6.84889 35.7446 6.83978L37.4841 3.60676C37.7391 3.10587 37.9395 2.56855 37.9212 2.00391C37.8848 0.756234 36.71 0.0185612 35.5716 0.000346994C34.1145 -0.0178672 32.7211 0.683379 31.5918 1.53945C31.5918 1.53945 31.5736 1.54855 31.5736 1.55766C30.7904 2.10409 29.9889 2.66873 29.1329 3.2698C16.0824 12.3678 7.67649 14.7994 1.89347 13.3605C1.49275 13.2603 1.21043 13.3605 1.01008 13.6246C0.554719 14.2165 2.09382 15.4278 3.03186 15.8285C4.58007 16.4933 6.27399 17.058 6.27399 17.058C4.09739 18.8794 3.07739 18.8521 3.66025 19.3074C4.09739 19.6444 7.12096 19.7719 8.8331 19.3985C13.4049 18.4149 16.7199 16.3476 20.2807 14.0981C22.2388 12.8687 29.8159 6.76693 29.8159 6.76693C28.632 8.77049 27.4754 10.7285 26.337 12.6228C22.9309 18.2692 19.6888 24.0613 17.2116 30.1813C17.0386 30.5547 17.0295 31.0191 17.1934 31.5565C17.5486 32.7404 18.259 33.8059 19.1059 34.6893C21.5466 37.2393 22.8216 36.5927 23.8781 33.6875C24.5611 31.775 25.6631 28.7788 26.1002 27.6586C27.1566 26.4292 28.2677 25.136 29.4334 23.779C33.0307 19.6079 36.8648 15.4915 40.9357 11.7303C40.0068 13.0873 39.0687 14.4442 38.1307 15.8103C37.6754 16.4751 32.63 24.9629 31.6282 28.9063C31.5554 29.2342 31.692 29.6986 32.038 30.2997C32.3841 30.9008 32.803 31.4927 33.2948 32.0665C33.7866 32.6402 34.2875 33.1138 34.7975 33.4781C34.7975 33.4781 34.8066 33.4781 34.8157 33.4872C35.3439 33.8515 36.0725 33.6693 36.4004 33.1138C38.1762 30.0811 40.107 27.1213 42.1834 24.2161C42.9848 23.1051 48.8043 15.6737 49.2869 15.109C49.3234 15.0635 49.3598 15.0271 49.3962 14.9815C48.3398 16.7119 43.6861 27.4583 43.2671 34.2977C43.0941 37.0389 43.5403 40.272 45.553 42.312C46.9282 43.6962 48.8771 44.3702 50.5893 43.1589C51.0719 42.8128 51.6366 42.1571 51.1994 41.5743C48.9591 38.5963 48.8316 34.4525 49.296 30.8916V30.9008ZM49.4053 14.9724V14.9815C49.4053 14.9815 49.4053 14.9724 49.4144 14.9724H49.4053Z" fill="#975EC9"/>
</svg>
