<svg width="76" height="32" viewBox="0 0 76 32" fill="none" xmlns="http://www.w3.org/2000/svg">
<g id="Group 10">
<g id="Vector">
<path fill-rule="evenodd" clip-rule="evenodd" d="M37.5873 0.801328C37.6503 0.775975 37.763 0.736576 37.8989 0.736576C38.0336 0.736576 38.1455 0.775206 38.2078 0.799837C38.2797 0.828312 38.3488 0.864297 38.4112 0.900452C38.5363 0.973014 38.6766 1.07105 38.8252 1.18507C39.1247 1.41483 39.5012 1.74273 39.9302 2.15124C40.7902 2.97021 41.8888 4.13961 43.0467 5.55912C45.3577 8.39248 47.9379 12.2633 49.3104 16.3721C50.7124 20.5693 49.7542 23.8195 48.4281 26.0153C47.7691 27.1065 47.0226 27.9328 46.4401 28.4872C46.1484 28.7648 45.8966 28.9755 45.7153 29.1184C45.6246 29.1898 45.5515 29.2444 45.4997 29.2821C45.4738 29.3009 45.4532 29.3155 45.4384 29.3258C45.4314 29.3307 45.4258 29.3346 45.4214 29.3376C41.2911 32.3218 37.5539 32.342 34.8406 31.5785C33.4955 31.1999 32.4146 30.6331 31.6696 30.1613C31.2965 29.925 31.0057 29.7114 30.8061 29.5548C30.7062 29.4765 30.629 29.4124 30.5755 29.3667C30.5511 29.3458 30.5316 29.3288 30.5171 29.316C30.5034 29.306 30.4855 29.2929 30.4639 29.2768C30.4131 29.2388 30.3413 29.1837 30.2524 29.1116C30.0746 28.9675 29.8276 28.7551 29.5417 28.4757C28.9705 27.9177 28.2391 27.0873 27.594 25.9937C26.2964 23.7941 25.3609 20.5465 26.7434 16.3734C28.0963 12.2897 30.6099 8.42048 32.8607 5.58177C33.9882 4.15975 35.0578 2.98614 35.8964 2.16343C36.3146 1.75311 36.6824 1.42316 36.976 1.19166C37.1217 1.07681 37.2599 0.977593 37.3841 0.903945C37.4459 0.86724 37.515 0.830483 37.5873 0.801328ZM31.2995 28.4579L31.3002 28.4585C31.3019 28.4601 31.3051 28.4629 31.3098 28.4671C31.3191 28.4754 31.3343 28.4887 31.3552 28.5065C31.3969 28.5422 31.4614 28.5959 31.5476 28.6635C31.7201 28.7987 31.9787 28.9891 32.3144 29.2017C32.9871 29.6277 33.9619 30.1382 35.1692 30.478C37.5591 31.1505 40.9105 31.1711 44.7229 28.414L44.7308 28.4083L44.738 28.4035L44.7389 28.4029C44.7405 28.4017 44.7441 28.3993 44.7487 28.3961C44.7556 28.3913 44.7657 28.3841 44.7788 28.3747C44.7831 28.3716 44.7877 28.3683 44.7926 28.3647C44.8327 28.3356 44.8935 28.2903 44.9715 28.2288C45.1275 28.1059 45.3514 27.9189 45.6139 27.669C46.1397 27.1686 46.8151 26.4208 47.4101 25.4357C48.592 23.4786 49.4707 20.5665 48.1878 16.7255C46.8752 12.796 44.3863 9.04717 42.1214 6.27043C40.9913 4.8849 39.9254 3.75164 39.1038 2.96922C38.6919 2.57703 38.3484 2.27955 38.0936 2.08411C38.0186 2.02658 37.9548 1.98065 37.9021 1.94505C37.8518 1.98008 37.7911 2.02503 37.72 2.08112C37.4715 2.27705 37.1366 2.57557 36.7352 2.96937C35.9346 3.75491 34.8968 4.89217 33.7959 6.28068C31.5898 9.06303 29.1625 12.8134 27.8669 16.7242C26.6009 20.5455 27.4595 23.4602 28.6181 25.4243C29.2011 26.4126 29.8634 27.1645 30.3788 27.6682C30.6362 27.9196 30.8558 28.1081 31.0087 28.232C31.0851 28.2939 31.1448 28.3397 31.184 28.369C31.1958 28.3778 31.2057 28.3851 31.2137 28.3909C31.219 28.3948 31.2235 28.3981 31.227 28.4006C31.2292 28.4022 31.231 28.4035 31.2324 28.4045C31.2341 28.4057 31.2362 28.4072 31.2362 28.4072L31.237 28.4078L31.2699 28.4306L31.2995 28.4579Z" fill="#C0C0C0"/>
<path fill-rule="evenodd" clip-rule="evenodd" d="M44.8964 5.94128C44.8125 5.63556 44.9997 5.32165 45.3146 5.24015C45.5339 5.18339 45.7534 5.12761 45.9732 5.0728C49.2461 4.25664 52.1369 3.83323 54.3362 3.86437C55.4338 3.87991 56.3936 4.00884 57.1525 4.28068C57.9115 4.55256 58.5353 4.9934 58.8289 5.66891C59.2631 6.66819 58.8243 7.80394 58.0385 8.87294C57.23 9.97262 55.9332 11.1734 54.2778 12.405C50.9598 14.8737 46.0908 17.5471 40.4566 19.8546C34.8225 22.1622 29.4524 23.6823 25.3157 24.2669C23.2519 24.5585 21.461 24.6223 20.0856 24.4171C18.7485 24.2175 17.6045 23.73 17.1703 22.7308C16.8832 22.07 16.9823 21.3458 17.2946 20.6436C17.6065 19.9422 18.1549 19.2033 18.8762 18.4489C20.3212 16.9374 22.5541 15.2669 25.3277 13.5983C25.6047 13.4317 25.9685 13.5146 26.1401 13.7836C26.3118 14.0525 26.2263 14.4056 25.9493 14.5723C23.2199 16.2143 21.0853 17.8224 19.7411 19.2284C19.0678 19.9327 18.6163 20.5622 18.3781 21.0977C18.1404 21.6323 18.1395 22.0135 18.2576 22.2854C18.4386 22.7019 19.0159 23.0982 20.2649 23.2846C21.4755 23.4652 23.1354 23.4171 25.1457 23.133C29.1573 22.5662 34.4286 21.0799 39.9979 18.7989C45.5672 16.518 50.3423 13.8896 53.56 11.4956C55.1724 10.2959 56.3663 9.17524 57.0779 8.20732C57.812 7.20872 57.9225 6.53075 57.7415 6.11426C57.6207 5.83638 57.3287 5.56509 56.744 5.35564C56.1591 5.14615 55.3472 5.02459 54.319 5.01003C52.2666 4.98098 49.4892 5.379 46.2668 6.18256C46.0505 6.2365 45.8344 6.29141 45.6186 6.34727C45.3037 6.42877 44.9803 6.247 44.8964 5.94128Z" fill="#C0C0C0"/>
<path fill-rule="evenodd" clip-rule="evenodd" d="M26.7 4.41945C26.9793 4.41945 27.2058 4.63931 27.2058 4.91051V6.71102C27.2058 6.98222 26.9793 7.20207 26.7 7.20207C26.4207 7.20207 26.1942 6.98222 26.1942 6.71102V4.91051C26.1942 4.63931 26.4207 4.41945 26.7 4.41945Z" fill="#C0C0C0"/>
<path fill-rule="evenodd" clip-rule="evenodd" d="M26.7 0C26.9793 1.18545e-08 27.2058 0.219851 27.2058 0.491051V2.29157C27.2058 2.56277 26.9793 2.78262 26.7 2.78262C26.4207 2.78262 26.1942 2.56277 26.1942 2.29157V0.49105C26.1942 0.219851 26.4207 -1.18545e-08 26.7 0Z" fill="#C0C0C0"/>
<path fill-rule="evenodd" clip-rule="evenodd" d="M27.8802 3.43735C27.8802 3.16615 28.1066 2.9463 28.3859 2.9463H29.5661C29.8455 2.9463 30.0719 3.16615 30.0719 3.43735C30.0719 3.70855 29.8455 3.9284 29.5661 3.9284H28.3859C28.1066 3.9284 27.8802 3.70855 27.8802 3.43735Z" fill="#C0C0C0"/>
<path fill-rule="evenodd" clip-rule="evenodd" d="M23.3281 3.43735C23.3281 3.16615 23.5545 2.9463 23.8339 2.9463L25.014 2.9463C25.2934 2.9463 25.5198 3.16615 25.5198 3.43735C25.5198 3.70855 25.2934 3.9284 25.014 3.9284L23.8339 3.9284C23.5545 3.9284 23.3281 3.70855 23.3281 3.43735Z" fill="#C0C0C0"/>
</g>
<path id="Rectangle 27" d="M70 16.5C70 15.1193 68.8807 14 67.5 14H49.6289C49.6289 14 51 17.5 51.0312 19H67.5C68.8807 19 70 17.8807 70 16.5Z" fill="#D9D9D9" fill-opacity="0.1"/>
<path id="Rectangle 28" d="M6 16.5C6 15.1193 7.11929 14 8.5 14H26.5C26.5 14 25 18 25 19H8.5C7.11929 19 6 17.8807 6 16.5Z" fill="#D9D9D9" fill-opacity="0.1"/>
<path id="Rectangle 29" d="M66 11.5C66 10.1193 64.8807 9 63.5 9H47C48.5 11 49.6326 14 49.6326 14H63.5C64.8807 14 66 12.8807 66 11.5Z" fill="#D9D9D9" fill-opacity="0.1"/>
<path id="Rectangle 30" d="M10 11.5C10 10.1193 11.1193 9 12.5 9H29C27.5 11 26.5 14 26.5 14H12.5C11.1193 14 10 12.8807 10 11.5Z" fill="#D9D9D9" fill-opacity="0.1"/>
<path id="Rectangle 31" d="M76 21.5C76 20.1193 74.8807 19 73.5 19H51.0312C51.0312 19 51.5 21 51 24H73.5C74.8807 24 76 22.8807 76 21.5Z" fill="#D9D9D9" fill-opacity="0.1"/>
<path id="Rectangle 32" d="M0 21.5C0 20.1193 1.11929 19 2.5 19H25C25 19 24.5 21 25 24H2.5C1.11929 24 0 22.8807 0 21.5Z" fill="#D9D9D9" fill-opacity="0.1"/>
<path id="Rectangle 33" d="M66 26.5C66 27.8807 64.8807 29 63.5 29H47.5C47.5 29 50.5 26.5 50.9799 24H63.5C64.8807 24 66 25.1193 66 26.5Z" fill="#D9D9D9" fill-opacity="0.1"/>
<path id="Rectangle 34" d="M10 26.5C10 27.8807 11.1193 29 12.5 29H28.5C28.5 29 25.5 26.5 25.0201 24H12.5C11.1193 24 10 25.1193 10 26.5Z" fill="#D9D9D9" fill-opacity="0.1"/>
<path id="Rectangle 35" d="M74 26.5C74 27.8807 72.8807 29 71.5 29H69.5C68.1193 29 67 27.8807 67 26.5C67 25.1193 68.1193 24 69.5 24H71.5C72.8807 24 74 25.1193 74 26.5Z" fill="#D9D9D9" fill-opacity="0.1"/>
</g>
</svg>
