<svg width="58" height="45" viewBox="0 0 58 45" fill="none" xmlns="http://www.w3.org/2000/svg">
  <style>
    path {
      fill: black
    }
    @media (prefers-color-scheme: dark) {
      path {
        fill: white
      }
    }
  </style>
  <path fill-rule="evenodd" clip-rule="evenodd" d="M28.3586 1.60183C28.4435 1.56697 28.5956 1.51279 28.779 1.51279C28.9606 1.51279 29.1117 1.56591 29.1957 1.59978C29.2928 1.63893 29.386 1.68841 29.4701 1.73812C29.6389 1.83789 29.8282 1.9727 30.0287 2.12947C30.4329 2.44539 30.9408 2.89625 31.5196 3.45796C32.6799 4.58404 34.1622 6.19197 35.7243 8.14379C38.8424 12.0397 42.3237 17.362 44.1754 23.0116C46.067 28.7828 44.7743 33.2519 42.9851 36.271C42.0958 37.7715 41.0887 38.9076 40.3028 39.6699C39.9092 40.0516 39.5694 40.3413 39.3249 40.5377C39.2026 40.636 39.1039 40.7111 39.034 40.7628C38.999 40.7887 38.9713 40.8088 38.9513 40.823C38.9419 40.8297 38.9342 40.8351 38.9284 40.8392C33.3557 44.9425 28.3135 44.9702 24.6527 43.9204C22.8379 43.3999 21.3795 42.6206 20.3743 41.9718C19.8709 41.6469 19.4786 41.3531 19.2093 41.1379C19.0746 41.0302 18.9704 40.942 18.8982 40.8792C18.8652 40.8505 18.8389 40.8271 18.8195 40.8095C18.8009 40.7958 18.7768 40.7778 18.7477 40.7556C18.6791 40.7033 18.5822 40.6275 18.4622 40.5284C18.2224 40.3303 17.8891 40.0383 17.5033 39.6541C16.7328 38.8868 15.746 37.7451 14.8756 36.2414C13.1248 33.2169 11.8626 28.7514 13.7279 23.0134C15.5532 17.3984 18.9446 12.0782 21.9814 8.17493C23.5026 6.21966 24.9458 4.60594 26.0772 3.47472C26.6414 2.91052 27.1376 2.45684 27.5338 2.13853C27.7304 1.98061 27.9169 1.84419 28.0843 1.74292C28.1678 1.69245 28.2609 1.64191 28.3586 1.60183ZM19.8751 39.6296L19.876 39.6305C19.8783 39.6326 19.8826 39.6366 19.8889 39.6422C19.9015 39.6536 19.9219 39.6719 19.9501 39.6964C20.0064 39.7455 20.0935 39.8193 20.2098 39.9123C20.4425 40.0982 20.7913 40.36 21.2443 40.6523C22.1519 41.238 23.4671 41.9401 25.096 42.4072C28.3205 43.3319 32.8422 43.3603 37.9859 39.5693L37.9966 39.5615L38.0063 39.5548L38.0075 39.554C38.0097 39.5524 38.0146 39.549 38.0207 39.5446C38.03 39.538 38.0437 39.5282 38.0614 39.5152C38.0672 39.5109 38.0734 39.5063 38.08 39.5014C38.134 39.4614 38.2161 39.3991 38.3213 39.3146C38.5318 39.1456 38.8339 38.8884 39.1881 38.5449C39.8975 37.8568 40.8088 36.8286 41.6115 35.4741C43.2062 32.7831 44.3918 28.7789 42.6607 23.4976C40.8898 18.0945 37.5318 12.9399 34.476 9.12184C32.9513 7.21673 31.5131 5.65851 30.4046 4.58267C29.8489 4.04342 29.3854 3.63438 29.0416 3.36565C28.9404 3.28654 28.8544 3.22339 28.7833 3.17444C28.7154 3.22261 28.6336 3.28441 28.5376 3.36154C28.2022 3.63095 27.7505 4.0414 27.209 4.58288C26.1287 5.663 24.7285 7.22674 23.2431 9.13594C20.2667 12.9617 16.9917 18.1185 15.2437 23.4958C13.5357 28.75 14.694 32.7578 16.2573 35.4584C17.0438 36.8173 17.9373 37.8511 18.6329 38.5437C18.9801 38.8895 19.2763 39.1486 19.4827 39.319C19.5858 39.4042 19.6662 39.467 19.7192 39.5074C19.735 39.5194 19.7484 39.5295 19.7592 39.5375C19.7664 39.5429 19.7724 39.5473 19.7772 39.5509C19.7801 39.553 19.7825 39.5547 19.7845 39.5562C19.7867 39.5578 19.7896 39.5598 19.7896 39.5598L19.7907 39.5607L19.835 39.592L19.8751 39.6296Z"/>
  <path fill-rule="evenodd" clip-rule="evenodd" d="M38.22 8.66926C38.1068 8.24889 38.3594 7.81727 38.7842 7.70521C39.0801 7.62716 39.3763 7.55046 39.6729 7.4751C44.0886 6.35289 47.989 5.7707 50.9563 5.81351C52.4371 5.83487 53.7321 6.01216 54.756 6.38593C55.7801 6.75977 56.6218 7.36593 57.0178 8.29476C57.6036 9.66876 57.0117 11.2304 55.9514 12.7003C54.8607 14.2123 53.111 15.8635 50.8775 17.5569C46.4008 20.9513 39.8315 24.6273 32.2299 27.8001C24.6283 30.973 17.3828 33.0632 11.8016 33.8669C9.01711 34.2679 6.60084 34.3557 4.74512 34.0735C2.94115 33.7991 1.39758 33.1288 0.811757 31.7548C0.424415 30.8463 0.558202 29.8505 0.979527 28.8849C1.40031 27.9206 2.14023 26.9046 3.11335 25.8672C5.06298 23.789 8.07568 21.4919 11.8178 19.1977C12.1916 18.9686 12.6823 19.0826 12.9139 19.4524C13.1455 19.8222 13.0303 20.3078 12.6565 20.5369C8.9739 22.7946 6.0939 25.0059 4.2804 26.939C3.37196 27.9074 2.7627 28.773 2.4414 29.5093C2.12063 30.2445 2.11942 30.7685 2.27885 31.1424C2.52301 31.7151 3.30187 32.26 4.98702 32.5163C6.62042 32.7647 8.86 32.6985 11.5723 32.3079C16.9847 31.5285 24.0968 29.4849 31.611 26.3485C39.1251 23.2122 45.5677 19.5981 49.909 16.3064C52.0845 14.6569 53.6953 13.116 54.6553 11.7851C55.6458 10.412 55.7949 9.47978 55.5507 8.90711C55.3878 8.52503 54.9938 8.15199 54.2049 7.864C53.4158 7.57596 52.3204 7.40881 50.9331 7.38879C48.164 7.34884 44.4166 7.89612 40.069 9.00102C39.7771 9.07519 39.4856 9.15069 39.1944 9.2275C38.7695 9.33956 38.3333 9.08963 38.22 8.66926Z"/>
</svg>
